<svg xmlns="http://www.w3.org/2000/svg" viewBox="0 0 100 60"><g fill="none" fill-rule="evenodd"><path fill="#FFF" d="M0 0h100v60H0z"/><path fill="#221F1F" fill-rule="nonzero" d="M24.906 12.657h1.652V27.53h-1.652V12.657zm-4.318 0h1.652V27.53h-1.652V12.657zm17.124 0h4.486V27.53h-4.486V12.657zm22.927 0h2.242V27.53H60.64V12.657zm5.485 0h2.242V27.53h-2.242V12.657zm8.977 0h2.882V27.53H75.1V12.657zm-3.245 0h.932V27.53h-.932V12.657zm-15.078 0h.932V27.53h-.932V12.657zm-1.994 0h.932V27.53h-.932V12.657zm-6.48 0h.932V27.53h-.933V12.657zm-14.892 0h.932V27.53h-.932V12.657zm-2.745 0h1.73V27.53h-1.73V12.657zm-10.08 33.897V31.257h5.738c1.168 0 2.103.154 2.81.463.706.31 1.256.786 1.655 1.431.401.64.602 1.313.602 2.02 0 .65-.177 1.267-.531 1.843a3.786 3.786 0 01-1.603 1.4c.925.272 1.638.735 2.131 1.389.498.652.748 1.424.748 2.314 0 .72-.153 1.386-.455 2a3.882 3.882 0 01-1.121 1.424c-.446.33-1.003.583-1.673.756-.81.185-1.639.272-2.469.257h-5.834.003zm2.03-8.867h3.307c.896 0 1.54-.061 1.928-.177a2.131 2.131 0 001.163-.765c.272-.392.41-.862.392-1.339a2.433 2.433 0 00-.366-1.341 1.842 1.842 0 00-1.043-.798c-.453-.142-1.227-.213-2.325-.213h-3.056v4.636-.003zm0 7.072h3.81c.653 0 1.113-.026 1.38-.075.462-.083.854-.222 1.168-.416.328-.212.594-.507.772-.855.203-.373.302-.805.302-1.291 0-.574-.146-1.068-.441-1.493a2.308 2.308 0 00-1.218-.89c-.517-.17-1.263-.257-2.235-.257h-3.538v5.277zm11.359-3.75c0-2.047.569-3.563 1.71-4.55.952-.819 2.115-1.228 3.484-1.228 1.52 0 2.766.499 3.734 1.495.965.994 1.449 2.37 1.449 4.128 0 1.424-.213 2.543-.64 3.358a4.533 4.533 0 01-1.869 1.9 5.407 5.407 0 01-2.671.676c-1.55 0-2.804-.496-3.762-1.488-.958-.994-1.435-2.425-1.435-4.29zm1.921.005c0 1.417.31 2.48.93 3.181.623.706 1.402 1.058 2.346 1.058.932 0 1.708-.352 2.331-1.06.619-.709.93-1.788.93-3.238 0-1.367-.314-2.404-.937-3.105a2.975 2.975 0 00-2.324-1.058c-.944 0-1.723.35-2.346 1.051-.619.701-.93 1.76-.93 3.174v-.003zm10.615 5.54V31.257h1.879v15.297h-1.879zm12.345-3.59l1.943.258c-.302 1.129-.869 2.007-1.695 2.63-.826.624-1.878.938-3.165.938-1.616 0-2.895-.498-3.844-1.495-.946-.994-1.42-2.392-1.42-4.191 0-1.858.476-3.303 1.434-4.33.958-1.03 2.2-1.543 3.727-1.543 1.477 0 2.683.503 3.62 1.51.937 1.008 1.406 2.424 1.406 4.25l-.009.498h-8.253c.07 1.214.413 2.146 1.031 2.791a3.067 3.067 0 002.31.968c.688 0 1.275-.182 1.759-.545.489-.364.87-.945 1.156-1.74v.002zm-6.15-3.012h6.172c-.083-.933-.321-1.632-.708-2.097a2.87 2.87 0 00-2.32-1.086c-.862 0-1.584.288-2.171.864-.583.576-.909 1.35-.973 2.319zm14.547 4.925l.258 1.66a6.96 6.96 0 01-1.414.168c-.68 0-1.206-.106-1.584-.323-.373-.218-.637-.499-.79-.85-.154-.352-.23-1.094-.23-2.222v-6.388h-1.387V35.47h1.388v-2.742l1.878-1.128v3.87h1.879v1.452h-1.879v6.496c0 .539.033.883.1 1.037a.765.765 0 00.32.366c.198.1.419.147.64.134l.819-.075.002-.003zm1.15-3.867c0-2.048.568-3.564 1.71-4.55.952-.82 2.115-1.229 3.484-1.229 1.52 0 2.766.499 3.733 1.495.966.994 1.45 2.37 1.45 4.128 0 1.424-.213 2.543-.64 3.358a4.533 4.533 0 01-1.87 1.9 5.407 5.407 0 01-2.67.676c-1.551 0-2.804-.496-3.763-1.488-.958-.994-1.434-2.425-1.434-4.29zm1.92.004c0 1.417.31 2.48.93 3.181.624.706 1.402 1.058 2.346 1.058.933 0 1.709-.352 2.332-1.06.618-.709.93-1.788.93-3.238 0-1.367-.314-2.404-.937-3.105a2.975 2.975 0 00-2.325-1.058c-.944 0-1.722.35-2.346 1.051-.618.701-.93 1.76-.93 3.174v-.003z"/></g></svg>